<mxfile host="app.diagrams.net" modified="2021-10-17T18:56:35.371Z" agent="5.0 (Windows NT 10.0; Win64; x64) AppleWebKit/537.36 (KHTML, like Gecko) Chrome/93.0.4577.82 Safari/537.36 OPR/79.0.4143.72" etag="GWI_RQKUYalrItsHz5Og" version="15.5.4" type="github" pages="2">
  <diagram id="1mpmxrVBWHrk_NMYiYCb" name="Preprocessing">
    <mxGraphModel dx="913" dy="498" grid="1" gridSize="10" guides="1" tooltips="1" connect="1" arrows="1" fold="1" page="1" pageScale="1" pageWidth="827" pageHeight="1169" math="0" shadow="0">
      <root>
        <mxCell id="0" />
        <mxCell id="1" parent="0" />
        <mxCell id="0A83QFK-7fu4B_3eO8cY-29" style="edgeStyle=orthogonalEdgeStyle;rounded=0;orthogonalLoop=1;jettySize=auto;html=1;entryX=1;entryY=0.5;entryDx=0;entryDy=0;strokeColor=#788AA3;fontColor=#46495D;exitX=0.5;exitY=1;exitDx=0;exitDy=0;" parent="1" source="0A83QFK-7fu4B_3eO8cY-1" target="0A83QFK-7fu4B_3eO8cY-3" edge="1">
          <mxGeometry relative="1" as="geometry">
            <Array as="points">
              <mxPoint x="465" y="65" />
            </Array>
          </mxGeometry>
        </mxCell>
        <mxCell id="0A83QFK-7fu4B_3eO8cY-30" value="Split" style="edgeStyle=orthogonalEdgeStyle;rounded=0;orthogonalLoop=1;jettySize=auto;html=1;entryX=0;entryY=0.5;entryDx=0;entryDy=0;strokeColor=#788AA3;fontColor=#46495D;exitX=0.5;exitY=1;exitDx=0;exitDy=0;" parent="1" source="0A83QFK-7fu4B_3eO8cY-1" target="0A83QFK-7fu4B_3eO8cY-2" edge="1">
          <mxGeometry x="-0.6585" relative="1" as="geometry">
            <Array as="points">
              <mxPoint x="465" y="65" />
            </Array>
            <mxPoint as="offset" />
          </mxGeometry>
        </mxCell>
        <mxCell id="0A83QFK-7fu4B_3eO8cY-1" value="Data" style="rounded=0;whiteSpace=wrap;html=1;fillColor=#B2C9AB;strokeColor=#788AA3;fontColor=#46495D;" parent="1" vertex="1">
          <mxGeometry x="370" y="10" width="190" height="20" as="geometry" />
        </mxCell>
        <mxCell id="0A83QFK-7fu4B_3eO8cY-65" style="edgeStyle=orthogonalEdgeStyle;curved=0;rounded=1;sketch=0;orthogonalLoop=1;jettySize=auto;html=1;entryX=0.5;entryY=0;entryDx=0;entryDy=0;entryPerimeter=0;fontSize=10;fontColor=#46495D;strokeColor=#788AA3;fillColor=#B2C9AB;" parent="1" source="0A83QFK-7fu4B_3eO8cY-2" target="0A83QFK-7fu4B_3eO8cY-64" edge="1">
          <mxGeometry relative="1" as="geometry" />
        </mxCell>
        <mxCell id="0A83QFK-7fu4B_3eO8cY-2" value="Property" style="rounded=1;whiteSpace=wrap;html=1;fillColor=#B2C9AB;strokeColor=#788AA3;fontColor=#46495D;" parent="1" vertex="1">
          <mxGeometry x="610" y="50" width="80" height="30" as="geometry" />
        </mxCell>
        <mxCell id="0A83QFK-7fu4B_3eO8cY-35" value="MolFromSmiles&lt;br&gt;Adds H&#39;s" style="edgeStyle=orthogonalEdgeStyle;rounded=0;orthogonalLoop=1;jettySize=auto;html=1;fontSize=10;entryX=0.5;entryY=0;entryDx=0;entryDy=0;strokeColor=#788AA3;fontColor=#46495D;" parent="1" source="0A83QFK-7fu4B_3eO8cY-3" target="0A83QFK-7fu4B_3eO8cY-31" edge="1">
          <mxGeometry relative="1" as="geometry">
            <Array as="points">
              <mxPoint x="280" y="110" />
              <mxPoint x="280" y="110" />
            </Array>
          </mxGeometry>
        </mxCell>
        <mxCell id="0A83QFK-7fu4B_3eO8cY-3" value="SMILES" style="rounded=1;whiteSpace=wrap;html=1;fillColor=#B2C9AB;strokeColor=#788AA3;fontColor=#46495D;" parent="1" vertex="1">
          <mxGeometry x="245" y="50" width="70" height="30" as="geometry" />
        </mxCell>
        <mxCell id="0A83QFK-7fu4B_3eO8cY-28" value="create_atoms" style="edgeStyle=orthogonalEdgeStyle;rounded=0;orthogonalLoop=1;jettySize=auto;html=1;entryX=0;entryY=0.5;entryDx=0;entryDy=0;exitX=0.5;exitY=1;exitDx=0;exitDy=0;strokeColor=#788AA3;fontColor=#46495D;" parent="1" source="0A83QFK-7fu4B_3eO8cY-31" target="0A83QFK-7fu4B_3eO8cY-14" edge="1">
          <mxGeometry x="0.3333" relative="1" as="geometry">
            <mxPoint x="280.0689655172414" y="180" as="sourcePoint" />
            <Array as="points">
              <mxPoint x="280" y="150" />
            </Array>
            <mxPoint as="offset" />
          </mxGeometry>
        </mxCell>
        <mxCell id="0A83QFK-7fu4B_3eO8cY-20" value="" style="edgeStyle=orthogonalEdgeStyle;rounded=0;orthogonalLoop=1;jettySize=auto;html=1;strokeColor=#788AA3;fontColor=#46495D;entryX=1;entryY=0.5;entryDx=0;entryDy=0;" parent="1" source="0A83QFK-7fu4B_3eO8cY-14" target="0A83QFK-7fu4B_3eO8cY-22" edge="1">
          <mxGeometry relative="1" as="geometry">
            <mxPoint x="360" y="310" as="targetPoint" />
            <Array as="points">
              <mxPoint x="530" y="310" />
            </Array>
          </mxGeometry>
        </mxCell>
        <mxCell id="0A83QFK-7fu4B_3eO8cY-74" value="len(atoms)" style="edgeStyle=orthogonalEdgeStyle;curved=0;rounded=1;sketch=0;orthogonalLoop=1;jettySize=auto;html=1;fontSize=10;fontColor=#46495D;strokeColor=#788AA3;fillColor=#B2C9AB;" parent="1" source="0A83QFK-7fu4B_3eO8cY-14" target="0A83QFK-7fu4B_3eO8cY-73" edge="1">
          <mxGeometry relative="1" as="geometry">
            <Array as="points">
              <mxPoint x="550" y="210" />
              <mxPoint x="550" y="370" />
              <mxPoint x="465" y="370" />
            </Array>
          </mxGeometry>
        </mxCell>
        <mxCell id="0A83QFK-7fu4B_3eO8cY-14" value="atoms" style="swimlane;fontStyle=0;childLayout=stackLayout;horizontal=1;startSize=20;horizontalStack=0;resizeParent=1;resizeParentMax=0;resizeLast=0;collapsible=1;marginBottom=0;fillColor=#B2C9AB;strokeColor=#788AA3;fontColor=#46495D;" parent="1" vertex="1">
          <mxGeometry x="500" y="130" width="60" height="40" as="geometry" />
        </mxCell>
        <mxCell id="0A83QFK-7fu4B_3eO8cY-15" value="np.array" style="text;strokeColor=none;fillColor=none;align=left;verticalAlign=middle;spacingLeft=4;spacingRight=4;overflow=hidden;points=[[0,0.5],[1,0.5]];portConstraint=eastwest;rotatable=0;fontColor=#46495D;fontSize=10;" parent="0A83QFK-7fu4B_3eO8cY-14" vertex="1">
          <mxGeometry y="20" width="60" height="20" as="geometry" />
        </mxCell>
        <mxCell id="0A83QFK-7fu4B_3eO8cY-21" value="fingerprints" style="swimlane;fontStyle=0;childLayout=stackLayout;horizontal=1;startSize=20;horizontalStack=0;resizeParent=1;resizeParentMax=0;resizeLast=0;collapsible=1;marginBottom=0;fillColor=#B2C9AB;strokeColor=#788AA3;fontColor=#46495D;" parent="1" vertex="1">
          <mxGeometry x="212.5" y="280" width="135" height="60" as="geometry" />
        </mxCell>
        <mxCell id="0A83QFK-7fu4B_3eO8cY-22" value="np.array" style="text;strokeColor=none;fillColor=none;align=left;verticalAlign=middle;spacingLeft=4;spacingRight=4;overflow=hidden;points=[[0,0.5],[1,0.5]];portConstraint=eastwest;rotatable=0;fontSize=10;fontColor=#46495D;" parent="0A83QFK-7fu4B_3eO8cY-21" vertex="1">
          <mxGeometry y="20" width="135" height="20" as="geometry" />
        </mxCell>
        <mxCell id="0A83QFK-7fu4B_3eO8cY-23" value="Based on Weisfeiler-LehmanÂ " style="text;strokeColor=none;fillColor=none;align=left;verticalAlign=middle;spacingLeft=4;spacingRight=4;overflow=hidden;points=[[0,0.5],[1,0.5]];portConstraint=eastwest;rotatable=0;fontSize=9;fontColor=#46495D;" parent="0A83QFK-7fu4B_3eO8cY-21" vertex="1">
          <mxGeometry y="40" width="135" height="20" as="geometry" />
        </mxCell>
        <mxCell id="0A83QFK-7fu4B_3eO8cY-40" value="create ij bond dict" style="edgeStyle=orthogonalEdgeStyle;rounded=0;orthogonalLoop=1;jettySize=auto;html=1;fontSize=10;strokeColor=#788AA3;fontColor=#46495D;" parent="1" source="0A83QFK-7fu4B_3eO8cY-31" target="0A83QFK-7fu4B_3eO8cY-38" edge="1">
          <mxGeometry x="-0.0968" relative="1" as="geometry">
            <mxPoint as="offset" />
          </mxGeometry>
        </mxCell>
        <mxCell id="0A83QFK-7fu4B_3eO8cY-31" value="mol" style="swimlane;fontStyle=0;childLayout=stackLayout;horizontal=1;startSize=20;horizontalStack=0;resizeParent=1;resizeParentMax=0;resizeLast=0;collapsible=1;marginBottom=0;fillColor=#B2C9AB;strokeColor=#788AA3;fontColor=#46495D;" parent="1" vertex="1">
          <mxGeometry x="240" y="130" width="80" height="40" as="geometry" />
        </mxCell>
        <mxCell id="0A83QFK-7fu4B_3eO8cY-36" value="rdkit mol" style="text;html=1;align=center;verticalAlign=middle;resizable=0;points=[];autosize=1;strokeColor=none;fillColor=none;fontSize=10;fontColor=#46495D;" parent="0A83QFK-7fu4B_3eO8cY-31" vertex="1">
          <mxGeometry y="20" width="80" height="20" as="geometry" />
        </mxCell>
        <mxCell id="0A83QFK-7fu4B_3eO8cY-44" value="get adj matrix" style="edgeStyle=orthogonalEdgeStyle;rounded=0;orthogonalLoop=1;jettySize=auto;html=1;fontSize=10;strokeColor=#788AA3;fontColor=#46495D;" parent="1" source="0A83QFK-7fu4B_3eO8cY-31" target="0A83QFK-7fu4B_3eO8cY-42" edge="1">
          <mxGeometry relative="1" as="geometry" />
        </mxCell>
        <mxCell id="0A83QFK-7fu4B_3eO8cY-38" value="ij bond" style="swimlane;fontStyle=0;childLayout=stackLayout;horizontal=1;startSize=20;horizontalStack=0;resizeParent=1;resizeParentMax=0;resizeLast=0;collapsible=1;marginBottom=0;fillColor=#B2C9AB;strokeColor=#788AA3;fontColor=#46495D;" parent="1" vertex="1">
          <mxGeometry x="245" y="210" width="70" height="40" as="geometry" />
        </mxCell>
        <mxCell id="0A83QFK-7fu4B_3eO8cY-39" value="dict" style="text;html=1;align=center;verticalAlign=middle;resizable=0;points=[];autosize=1;strokeColor=none;fillColor=none;fontSize=10;fontColor=#46495D;" parent="0A83QFK-7fu4B_3eO8cY-38" vertex="1">
          <mxGeometry y="20" width="70" height="20" as="geometry" />
        </mxCell>
        <mxCell id="0A83QFK-7fu4B_3eO8cY-41" style="edgeStyle=orthogonalEdgeStyle;rounded=0;orthogonalLoop=1;jettySize=auto;html=1;entryX=0.5;entryY=0;entryDx=0;entryDy=0;fontSize=10;strokeColor=#788AA3;fontColor=#46495D;" parent="1" source="0A83QFK-7fu4B_3eO8cY-39" target="0A83QFK-7fu4B_3eO8cY-21" edge="1">
          <mxGeometry relative="1" as="geometry" />
        </mxCell>
        <mxCell id="0A83QFK-7fu4B_3eO8cY-63" value="Float Tensor" style="edgeStyle=orthogonalEdgeStyle;rounded=0;orthogonalLoop=1;jettySize=auto;html=1;fontSize=10;strokeColor=#788AA3;fontColor=#46495D;" parent="1" source="0A83QFK-7fu4B_3eO8cY-42" target="0A83QFK-7fu4B_3eO8cY-61" edge="1">
          <mxGeometry relative="1" as="geometry" />
        </mxCell>
        <mxCell id="0A83QFK-7fu4B_3eO8cY-42" value="Adjacency Matrix" style="swimlane;fontStyle=0;childLayout=stackLayout;horizontal=1;startSize=20;horizontalStack=0;resizeParent=1;resizeParentMax=0;resizeLast=0;collapsible=1;marginBottom=0;fontSize=10;fillColor=#B2C9AB;strokeColor=#788AA3;fontColor=#46495D;" parent="1" vertex="1">
          <mxGeometry x="30" y="280" width="110" height="40" as="geometry" />
        </mxCell>
        <mxCell id="0A83QFK-7fu4B_3eO8cY-46" value="matrix" style="text;html=1;align=center;verticalAlign=middle;resizable=0;points=[];autosize=1;strokeColor=none;fillColor=none;fontSize=10;fontColor=#46495D;" parent="0A83QFK-7fu4B_3eO8cY-42" vertex="1">
          <mxGeometry y="20" width="110" height="20" as="geometry" />
        </mxCell>
        <mxCell id="0A83QFK-7fu4B_3eO8cY-49" style="edgeStyle=orthogonalEdgeStyle;rounded=0;orthogonalLoop=1;jettySize=auto;html=1;entryX=0;entryY=0.5;entryDx=0;entryDy=0;fontSize=10;strokeColor=#788AA3;fontColor=#46495D;" parent="1" source="0A83QFK-7fu4B_3eO8cY-48" target="0A83QFK-7fu4B_3eO8cY-22" edge="1">
          <mxGeometry relative="1" as="geometry" />
        </mxCell>
        <mxCell id="0A83QFK-7fu4B_3eO8cY-48" value="radius" style="rounded=1;whiteSpace=wrap;html=1;fontSize=10;fillColor=#B2C9AB;strokeColor=#788AA3;fontColor=#46495D;" parent="1" vertex="1">
          <mxGeometry x="160" y="180" width="50" height="20" as="geometry" />
        </mxCell>
        <mxCell id="0A83QFK-7fu4B_3eO8cY-51" style="edgeStyle=orthogonalEdgeStyle;rounded=0;orthogonalLoop=1;jettySize=auto;html=1;entryX=1;entryY=0.5;entryDx=0;entryDy=0;fontSize=10;strokeColor=#788AA3;fontColor=#46495D;" parent="1" source="0A83QFK-7fu4B_3eO8cY-50" target="0A83QFK-7fu4B_3eO8cY-22" edge="1">
          <mxGeometry relative="1" as="geometry" />
        </mxCell>
        <mxCell id="0A83QFK-7fu4B_3eO8cY-53" value="" style="edgeStyle=orthogonalEdgeStyle;rounded=0;orthogonalLoop=1;jettySize=auto;html=1;fontSize=10;exitX=0.5;exitY=1;exitDx=0;exitDy=0;entryX=1;entryY=0.5;entryDx=0;entryDy=0;strokeColor=#788AA3;fontColor=#46495D;" parent="1" source="0A83QFK-7fu4B_3eO8cY-52" target="0A83QFK-7fu4B_3eO8cY-22" edge="1">
          <mxGeometry relative="1" as="geometry">
            <Array as="points">
              <mxPoint x="380" y="310" />
            </Array>
          </mxGeometry>
        </mxCell>
        <mxCell id="0A83QFK-7fu4B_3eO8cY-104" value="length of dict" style="edgeStyle=orthogonalEdgeStyle;curved=0;rounded=1;sketch=0;orthogonalLoop=1;jettySize=auto;html=1;entryX=0.5;entryY=0;entryDx=0;entryDy=0;fontSize=10;fontColor=#46495D;strokeColor=#788AA3;fillColor=#B2C9AB;jumpStyle=arc;" parent="1" source="0A83QFK-7fu4B_3eO8cY-50" target="0A83QFK-7fu4B_3eO8cY-99" edge="1">
          <mxGeometry relative="1" as="geometry">
            <Array as="points">
              <mxPoint x="790" y="230" />
              <mxPoint x="790" y="560" />
              <mxPoint x="695" y="560" />
            </Array>
          </mxGeometry>
        </mxCell>
        <mxCell id="0A83QFK-7fu4B_3eO8cY-50" value="fingerprint dict" style="ellipse;whiteSpace=wrap;html=1;fontSize=10;fillColor=#B2C9AB;strokeColor=#788AA3;fontColor=#46495D;" parent="1" vertex="1">
          <mxGeometry x="430" y="220" width="80" height="20" as="geometry" />
        </mxCell>
        <mxCell id="0A83QFK-7fu4B_3eO8cY-52" value="edge dict" style="ellipse;whiteSpace=wrap;html=1;fontSize=10;fillColor=#B2C9AB;strokeColor=#788AA3;fontColor=#46495D;" parent="1" vertex="1">
          <mxGeometry x="340" y="222.5" width="80" height="15" as="geometry" />
        </mxCell>
        <mxCell id="0A83QFK-7fu4B_3eO8cY-54" value="" style="endArrow=classic;html=1;rounded=0;fontSize=10;exitX=0.5;exitY=1.05;exitDx=0;exitDy=0;exitPerimeter=0;entryX=0.5;entryY=0;entryDx=0;entryDy=0;strokeColor=#788AA3;fontColor=#46495D;" parent="1" source="0A83QFK-7fu4B_3eO8cY-23" target="0A83QFK-7fu4B_3eO8cY-56" edge="1">
          <mxGeometry relative="1" as="geometry">
            <mxPoint x="260" y="380" as="sourcePoint" />
            <mxPoint x="280" y="390" as="targetPoint" />
          </mxGeometry>
        </mxCell>
        <mxCell id="0A83QFK-7fu4B_3eO8cY-55" value="Long Tensor" style="edgeLabel;resizable=0;html=1;align=center;verticalAlign=middle;fontSize=10;fontColor=#46495D;" parent="0A83QFK-7fu4B_3eO8cY-54" connectable="0" vertex="1">
          <mxGeometry relative="1" as="geometry" />
        </mxCell>
        <mxCell id="0A83QFK-7fu4B_3eO8cY-78" style="edgeStyle=orthogonalEdgeStyle;curved=0;rounded=1;sketch=0;orthogonalLoop=1;jettySize=auto;html=1;entryX=0;entryY=0.5;entryDx=0;entryDy=0;fontSize=10;fontColor=#46495D;strokeColor=#788AA3;fillColor=#B2C9AB;" parent="1" source="0A83QFK-7fu4B_3eO8cY-56" target="0A83QFK-7fu4B_3eO8cY-76" edge="1">
          <mxGeometry relative="1" as="geometry">
            <Array as="points">
              <mxPoint x="280" y="535" />
            </Array>
          </mxGeometry>
        </mxCell>
        <mxCell id="0A83QFK-7fu4B_3eO8cY-56" value="fingerprints" style="swimlane;fontStyle=0;childLayout=stackLayout;horizontal=1;startSize=20;horizontalStack=0;resizeParent=1;resizeParentMax=0;resizeLast=0;collapsible=1;marginBottom=0;fillColor=#B2C9AB;strokeColor=#788AA3;fontColor=#46495D;" parent="1" vertex="1">
          <mxGeometry x="212.5" y="390" width="135" height="40" as="geometry" />
        </mxCell>
        <mxCell id="0A83QFK-7fu4B_3eO8cY-57" value="torch.LongTensor" style="text;strokeColor=none;fillColor=none;align=left;verticalAlign=middle;spacingLeft=4;spacingRight=4;overflow=hidden;points=[[0,0.5],[1,0.5]];portConstraint=eastwest;rotatable=0;fontSize=10;fontColor=#46495D;" parent="0A83QFK-7fu4B_3eO8cY-56" vertex="1">
          <mxGeometry y="20" width="135" height="20" as="geometry" />
        </mxCell>
        <mxCell id="0A83QFK-7fu4B_3eO8cY-79" style="edgeStyle=orthogonalEdgeStyle;curved=0;rounded=1;sketch=0;orthogonalLoop=1;jettySize=auto;html=1;entryX=0;entryY=0.5;entryDx=0;entryDy=0;fontSize=10;fontColor=#46495D;strokeColor=#788AA3;fillColor=#B2C9AB;" parent="1" source="0A83QFK-7fu4B_3eO8cY-61" target="0A83QFK-7fu4B_3eO8cY-76" edge="1">
          <mxGeometry relative="1" as="geometry">
            <Array as="points">
              <mxPoint x="85" y="535" />
            </Array>
          </mxGeometry>
        </mxCell>
        <mxCell id="0A83QFK-7fu4B_3eO8cY-61" value="Adjacency Matrix" style="swimlane;fontStyle=0;childLayout=stackLayout;horizontal=1;startSize=20;horizontalStack=0;resizeParent=1;resizeParentMax=0;resizeLast=0;collapsible=1;marginBottom=0;fontSize=10;fillColor=#B2C9AB;strokeColor=#788AA3;fontColor=#46495D;" parent="1" vertex="1">
          <mxGeometry x="30" y="390" width="110" height="40" as="geometry" />
        </mxCell>
        <mxCell id="0A83QFK-7fu4B_3eO8cY-62" value="torch.FloatTensor" style="text;html=1;align=center;verticalAlign=middle;resizable=0;points=[];autosize=1;strokeColor=none;fillColor=none;fontSize=10;fontColor=#46495D;" parent="0A83QFK-7fu4B_3eO8cY-61" vertex="1">
          <mxGeometry y="20" width="110" height="20" as="geometry" />
        </mxCell>
        <mxCell id="0A83QFK-7fu4B_3eO8cY-66" value="Regression" style="edgeStyle=orthogonalEdgeStyle;curved=0;rounded=1;sketch=0;orthogonalLoop=1;jettySize=auto;html=1;fontSize=10;fontColor=#46495D;strokeColor=#788AA3;fillColor=#B2C9AB;entryX=0.5;entryY=0;entryDx=0;entryDy=0;jumpStyle=arc;" parent="1" source="0A83QFK-7fu4B_3eO8cY-64" target="0A83QFK-7fu4B_3eO8cY-68" edge="1">
          <mxGeometry x="0.0667" relative="1" as="geometry">
            <mxPoint x="610" y="320" as="targetPoint" />
            <Array as="points">
              <mxPoint x="605" y="190" />
            </Array>
            <mxPoint as="offset" />
          </mxGeometry>
        </mxCell>
        <mxCell id="0A83QFK-7fu4B_3eO8cY-67" value="Classification" style="edgeStyle=orthogonalEdgeStyle;curved=0;rounded=1;sketch=0;orthogonalLoop=1;jettySize=auto;html=1;fontSize=10;fontColor=#46495D;strokeColor=#788AA3;fillColor=#B2C9AB;entryX=0.5;entryY=0;entryDx=0;entryDy=0;jumpStyle=arc;" parent="1" source="0A83QFK-7fu4B_3eO8cY-64" target="0A83QFK-7fu4B_3eO8cY-70" edge="1">
          <mxGeometry x="0.125" relative="1" as="geometry">
            <mxPoint x="700" y="320" as="targetPoint" />
            <Array as="points">
              <mxPoint x="705" y="190" />
            </Array>
            <mxPoint as="offset" />
          </mxGeometry>
        </mxCell>
        <mxCell id="0A83QFK-7fu4B_3eO8cY-64" value="" style="strokeWidth=2;html=1;shape=mxgraph.flowchart.decision;whiteSpace=wrap;rounded=0;sketch=0;fontSize=10;fontColor=#46495D;fillColor=#B2C9AB;" parent="1" vertex="1">
          <mxGeometry x="630" y="170" width="40" height="40" as="geometry" />
        </mxCell>
        <mxCell id="0A83QFK-7fu4B_3eO8cY-81" value="" style="edgeStyle=orthogonalEdgeStyle;curved=0;rounded=1;sketch=0;orthogonalLoop=1;jettySize=auto;html=1;fontSize=10;fontColor=#46495D;strokeColor=#788AA3;fillColor=#B2C9AB;" parent="1" source="0A83QFK-7fu4B_3eO8cY-68" target="0A83QFK-7fu4B_3eO8cY-80" edge="1">
          <mxGeometry relative="1" as="geometry" />
        </mxCell>
        <mxCell id="0A83QFK-7fu4B_3eO8cY-68" value="property" style="swimlane;fontStyle=0;childLayout=stackLayout;horizontal=1;startSize=20;horizontalStack=0;resizeParent=1;resizeParentMax=0;resizeLast=0;collapsible=1;marginBottom=0;fillColor=#B2C9AB;strokeColor=#788AA3;fontColor=#46495D;" parent="1" vertex="1">
          <mxGeometry x="560" y="390" width="90" height="40" as="geometry" />
        </mxCell>
        <mxCell id="0A83QFK-7fu4B_3eO8cY-69" value="torch.LongTensor" style="text;strokeColor=none;fillColor=none;align=left;verticalAlign=middle;spacingLeft=4;spacingRight=4;overflow=hidden;points=[[0,0.5],[1,0.5]];portConstraint=eastwest;rotatable=0;fontSize=10;fontColor=#46495D;" parent="0A83QFK-7fu4B_3eO8cY-68" vertex="1">
          <mxGeometry y="20" width="90" height="20" as="geometry" />
        </mxCell>
        <mxCell id="0A83QFK-7fu4B_3eO8cY-82" style="edgeStyle=orthogonalEdgeStyle;curved=0;rounded=1;sketch=0;orthogonalLoop=1;jettySize=auto;html=1;entryX=0.5;entryY=0;entryDx=0;entryDy=0;fontSize=10;fontColor=#46495D;strokeColor=#788AA3;fillColor=#B2C9AB;" parent="1" source="0A83QFK-7fu4B_3eO8cY-70" target="0A83QFK-7fu4B_3eO8cY-80" edge="1">
          <mxGeometry relative="1" as="geometry" />
        </mxCell>
        <mxCell id="0A83QFK-7fu4B_3eO8cY-70" value="property" style="swimlane;fontStyle=0;childLayout=stackLayout;horizontal=1;startSize=20;horizontalStack=0;resizeParent=1;resizeParentMax=0;resizeLast=0;collapsible=1;marginBottom=0;fillColor=#B2C9AB;strokeColor=#788AA3;fontColor=#46495D;" parent="1" vertex="1">
          <mxGeometry x="660" y="390" width="90" height="40" as="geometry" />
        </mxCell>
        <mxCell id="0A83QFK-7fu4B_3eO8cY-71" value="torch.FloatTensor" style="text;strokeColor=none;fillColor=none;align=left;verticalAlign=middle;spacingLeft=4;spacingRight=4;overflow=hidden;points=[[0,0.5],[1,0.5]];portConstraint=eastwest;rotatable=0;fontSize=10;fontColor=#46495D;" parent="0A83QFK-7fu4B_3eO8cY-70" vertex="1">
          <mxGeometry y="20" width="90" height="20" as="geometry" />
        </mxCell>
        <mxCell id="0A83QFK-7fu4B_3eO8cY-77" style="edgeStyle=orthogonalEdgeStyle;curved=0;rounded=1;sketch=0;orthogonalLoop=1;jettySize=auto;html=1;entryX=0.5;entryY=0;entryDx=0;entryDy=0;fontSize=10;fontColor=#46495D;strokeColor=#788AA3;fillColor=#B2C9AB;" parent="1" source="0A83QFK-7fu4B_3eO8cY-73" target="0A83QFK-7fu4B_3eO8cY-76" edge="1">
          <mxGeometry relative="1" as="geometry" />
        </mxCell>
        <mxCell id="0A83QFK-7fu4B_3eO8cY-73" value="molecular size" style="ellipse;whiteSpace=wrap;html=1;fontColor=#46495D;fontStyle=0;strokeColor=#788AA3;fillColor=#B2C9AB;startSize=20;" parent="1" vertex="1">
          <mxGeometry x="400" y="400" width="100" height="20" as="geometry" />
        </mxCell>
        <mxCell id="0A83QFK-7fu4B_3eO8cY-76" value="Dataset" style="rounded=0;whiteSpace=wrap;html=1;sketch=0;fontSize=10;fontColor=#46495D;strokeColor=#788AA3;fillColor=#B2C9AB;" parent="1" vertex="1">
          <mxGeometry x="355" y="520" width="190" height="30" as="geometry" />
        </mxCell>
        <mxCell id="0A83QFK-7fu4B_3eO8cY-83" style="edgeStyle=orthogonalEdgeStyle;curved=0;rounded=1;sketch=0;orthogonalLoop=1;jettySize=auto;html=1;entryX=1;entryY=0.5;entryDx=0;entryDy=0;fontSize=10;fontColor=#46495D;strokeColor=#788AA3;fillColor=#B2C9AB;" parent="1" source="0A83QFK-7fu4B_3eO8cY-80" target="0A83QFK-7fu4B_3eO8cY-76" edge="1">
          <mxGeometry relative="1" as="geometry">
            <Array as="points">
              <mxPoint x="655" y="535" />
            </Array>
          </mxGeometry>
        </mxCell>
        <mxCell id="0A83QFK-7fu4B_3eO8cY-80" value="" style="rhombus;whiteSpace=wrap;html=1;fontColor=#46495D;fontStyle=0;strokeColor=#788AA3;fillColor=#B2C9AB;startSize=20;" parent="1" vertex="1">
          <mxGeometry x="640" y="490" width="30" height="30" as="geometry" />
        </mxCell>
        <mxCell id="0A83QFK-7fu4B_3eO8cY-86" value="Training set (90%)" style="whiteSpace=wrap;html=1;align=center;verticalAlign=middle;treeFolding=1;treeMoving=1;rounded=0;sketch=0;fontSize=10;fontColor=#46495D;strokeColor=#788AA3;fillColor=#B2C9AB;" parent="1" vertex="1">
          <mxGeometry x="270" y="630" width="100" height="40" as="geometry" />
        </mxCell>
        <mxCell id="0A83QFK-7fu4B_3eO8cY-87" value="Development Set (10%)" style="whiteSpace=wrap;html=1;align=center;verticalAlign=middle;treeFolding=1;treeMoving=1;rounded=0;sketch=0;fontSize=10;fontColor=#46495D;strokeColor=#788AA3;fillColor=#B2C9AB;" parent="1" vertex="1">
          <mxGeometry x="390" y="630" width="100" height="40" as="geometry" />
        </mxCell>
        <mxCell id="0A83QFK-7fu4B_3eO8cY-88" value="Test Set" style="whiteSpace=wrap;html=1;align=center;verticalAlign=middle;treeFolding=1;treeMoving=1;newEdgeStyle={&quot;edgeStyle&quot;:&quot;elbowEdgeStyle&quot;,&quot;startArrow&quot;:&quot;none&quot;,&quot;endArrow&quot;:&quot;none&quot;};rounded=0;sketch=0;fontSize=10;fontColor=#46495D;strokeColor=#788AA3;fillColor=#B2C9AB;" parent="1" vertex="1">
          <mxGeometry x="530" y="630" width="90" height="40" as="geometry" />
        </mxCell>
        <mxCell id="0A83QFK-7fu4B_3eO8cY-89" value="Test Data" style="edgeStyle=elbowEdgeStyle;elbow=vertical;startArrow=none;endArrow=none;rounded=0;sketch=0;fontSize=10;fontColor=#46495D;strokeColor=#788AA3;fillColor=#B2C9AB;curved=0;exitX=0.75;exitY=1;exitDx=0;exitDy=0;" parent="1" source="0A83QFK-7fu4B_3eO8cY-76" target="0A83QFK-7fu4B_3eO8cY-88" edge="1">
          <mxGeometry relative="1" as="geometry">
            <mxPoint x="500" y="570" as="sourcePoint" />
          </mxGeometry>
        </mxCell>
        <mxCell id="0A83QFK-7fu4B_3eO8cY-90" value="" style="edgeStyle=elbowEdgeStyle;elbow=vertical;startArrow=none;endArrow=none;rounded=0;sketch=0;fontSize=10;fontColor=#46495D;strokeColor=#788AA3;fillColor=#B2C9AB;curved=0;entryX=0.5;entryY=0;entryDx=0;entryDy=0;exitX=0.205;exitY=1.139;exitDx=0;exitDy=0;exitPerimeter=0;" parent="1" source="0A83QFK-7fu4B_3eO8cY-76" target="0A83QFK-7fu4B_3eO8cY-87" edge="1">
          <mxGeometry relative="1" as="geometry">
            <mxPoint x="450" y="560" as="sourcePoint" />
            <mxPoint x="585" y="640" as="targetPoint" />
            <Array as="points">
              <mxPoint x="410" y="610" />
            </Array>
          </mxGeometry>
        </mxCell>
        <mxCell id="0A83QFK-7fu4B_3eO8cY-91" value="Training Data" style="edgeStyle=elbowEdgeStyle;elbow=vertical;startArrow=none;endArrow=none;rounded=0;sketch=0;fontSize=10;fontColor=#46495D;strokeColor=#788AA3;fillColor=#B2C9AB;curved=0;entryX=0.5;entryY=0;entryDx=0;entryDy=0;exitX=0.202;exitY=1.046;exitDx=0;exitDy=0;exitPerimeter=0;" parent="1" source="0A83QFK-7fu4B_3eO8cY-76" target="0A83QFK-7fu4B_3eO8cY-86" edge="1">
          <mxGeometry x="-0.4918" relative="1" as="geometry">
            <mxPoint x="330.00000000000006" y="560" as="sourcePoint" />
            <mxPoint x="376.05" y="635.83" as="targetPoint" />
            <Array as="points">
              <mxPoint x="360" y="610" />
            </Array>
            <mxPoint as="offset" />
          </mxGeometry>
        </mxCell>
        <mxCell id="0A83QFK-7fu4B_3eO8cY-99" value="Numer of fingerprints" style="swimlane;fontStyle=0;childLayout=stackLayout;horizontal=1;startSize=20;horizontalStack=0;resizeParent=1;resizeParentMax=0;resizeLast=0;collapsible=1;marginBottom=0;rounded=0;sketch=0;fontSize=10;fontColor=#46495D;strokeColor=#788AA3;fillColor=#B2C9AB;" parent="1" vertex="1">
          <mxGeometry x="640" y="630" width="110" height="40" as="geometry" />
        </mxCell>
        <mxCell id="0A83QFK-7fu4B_3eO8cY-100" value="int" style="text;strokeColor=none;fillColor=none;align=left;verticalAlign=middle;spacingLeft=4;spacingRight=4;overflow=hidden;points=[[0,0.5],[1,0.5]];portConstraint=eastwest;rotatable=0;rounded=0;sketch=0;fontSize=10;fontColor=#46495D;" parent="0A83QFK-7fu4B_3eO8cY-99" vertex="1">
          <mxGeometry y="20" width="110" height="20" as="geometry" />
        </mxCell>
      </root>
    </mxGraphModel>
  </diagram>
  <diagram id="lEurrv4uN73GVgMXQObc" name="Molecular GNN">
    <mxGraphModel dx="913" dy="498" grid="1" gridSize="10" guides="1" tooltips="1" connect="1" arrows="1" fold="1" page="1" pageScale="1" pageWidth="827" pageHeight="1169" math="0" shadow="0">
      <root>
        <mxCell id="a4BsjhHOYA5eZ4fZa6Ob-0" />
        <mxCell id="a4BsjhHOYA5eZ4fZa6Ob-1" parent="a4BsjhHOYA5eZ4fZa6Ob-0" />
        <mxCell id="a4BsjhHOYA5eZ4fZa6Ob-4" style="edgeStyle=orthogonalEdgeStyle;curved=0;rounded=1;sketch=0;orthogonalLoop=1;jettySize=auto;html=1;fontSize=10;fontColor=#46495D;strokeColor=#788AA3;fillColor=#B2C9AB;" edge="1" parent="a4BsjhHOYA5eZ4fZa6Ob-1" source="a4BsjhHOYA5eZ4fZa6Ob-2" target="a4BsjhHOYA5eZ4fZa6Ob-5">
          <mxGeometry relative="1" as="geometry">
            <mxPoint x="396.5" y="70" as="targetPoint" />
          </mxGeometry>
        </mxCell>
        <mxCell id="a4BsjhHOYA5eZ4fZa6Ob-10" value="" style="edgeStyle=orthogonalEdgeStyle;curved=0;rounded=1;sketch=0;orthogonalLoop=1;jettySize=auto;html=1;fontSize=10;fontColor=#46495D;strokeColor=#788AA3;fillColor=#B2C9AB;" edge="1" parent="a4BsjhHOYA5eZ4fZa6Ob-1" source="a4BsjhHOYA5eZ4fZa6Ob-2" target="a4BsjhHOYA5eZ4fZa6Ob-9">
          <mxGeometry relative="1" as="geometry" />
        </mxCell>
        <mxCell id="a4BsjhHOYA5eZ4fZa6Ob-15" style="edgeStyle=orthogonalEdgeStyle;curved=0;rounded=1;sketch=0;orthogonalLoop=1;jettySize=auto;html=1;fontSize=10;fontColor=#46495D;strokeColor=#788AA3;fillColor=#B2C9AB;" edge="1" parent="a4BsjhHOYA5eZ4fZa6Ob-1" source="a4BsjhHOYA5eZ4fZa6Ob-2" target="a4BsjhHOYA5eZ4fZa6Ob-11">
          <mxGeometry relative="1" as="geometry" />
        </mxCell>
        <mxCell id="a4BsjhHOYA5eZ4fZa6Ob-16" style="edgeStyle=orthogonalEdgeStyle;curved=0;rounded=1;sketch=0;orthogonalLoop=1;jettySize=auto;html=1;entryX=0.5;entryY=0;entryDx=0;entryDy=0;fontSize=10;fontColor=#46495D;strokeColor=#788AA3;fillColor=#B2C9AB;" edge="1" parent="a4BsjhHOYA5eZ4fZa6Ob-1" source="a4BsjhHOYA5eZ4fZa6Ob-2" target="a4BsjhHOYA5eZ4fZa6Ob-12">
          <mxGeometry relative="1" as="geometry" />
        </mxCell>
        <mxCell id="a4BsjhHOYA5eZ4fZa6Ob-2" value="Inputs" style="rounded=1;whiteSpace=wrap;html=1;sketch=0;fontColor=#46495D;strokeColor=#788AA3;fillColor=#B2C9AB;fontSize=10;" vertex="1" parent="a4BsjhHOYA5eZ4fZa6Ob-1">
          <mxGeometry x="353" y="10" width="87" height="20" as="geometry" />
        </mxCell>
        <mxCell id="a4BsjhHOYA5eZ4fZa6Ob-3" value="Model" style="shape=parallelogram;perimeter=parallelogramPerimeter;whiteSpace=wrap;html=1;fixedSize=1;rounded=0;sketch=0;fontSize=10;fontColor=#46495D;strokeColor=#788AA3;fillColor=#B2C9AB;" vertex="1" parent="a4BsjhHOYA5eZ4fZa6Ob-1">
          <mxGeometry x="520" y="230" width="90" height="20" as="geometry" />
        </mxCell>
        <mxCell id="a4BsjhHOYA5eZ4fZa6Ob-5" value="Number of fingerprints" style="shape=parallelogram;perimeter=parallelogramPerimeter;whiteSpace=wrap;html=1;fixedSize=1;rounded=0;sketch=0;fontSize=10;fontColor=#46495D;strokeColor=#788AA3;fillColor=#B2C9AB;" vertex="1" parent="a4BsjhHOYA5eZ4fZa6Ob-1">
          <mxGeometry x="329.88" y="60" width="133.25" height="20" as="geometry" />
        </mxCell>
        <mxCell id="a4BsjhHOYA5eZ4fZa6Ob-9" value="dimension" style="ellipse;whiteSpace=wrap;html=1;rounded=1;fontSize=10;fontColor=#46495D;strokeColor=#788AA3;fillColor=#B2C9AB;sketch=0;" vertex="1" parent="a4BsjhHOYA5eZ4fZa6Ob-1">
          <mxGeometry x="480" y="60" width="70" height="20" as="geometry" />
        </mxCell>
        <mxCell id="a4BsjhHOYA5eZ4fZa6Ob-11" value="hidden layers" style="ellipse;whiteSpace=wrap;html=1;rounded=1;fontSize=10;fontColor=#46495D;strokeColor=#788AA3;fillColor=#B2C9AB;sketch=0;" vertex="1" parent="a4BsjhHOYA5eZ4fZa6Ob-1">
          <mxGeometry x="580" y="60" width="70" height="20" as="geometry" />
        </mxCell>
        <mxCell id="a4BsjhHOYA5eZ4fZa6Ob-12" value="output layer" style="ellipse;whiteSpace=wrap;html=1;rounded=1;fontSize=10;fontColor=#46495D;strokeColor=#788AA3;fillColor=#B2C9AB;sketch=0;" vertex="1" parent="a4BsjhHOYA5eZ4fZa6Ob-1">
          <mxGeometry x="670" y="60" width="70" height="20" as="geometry" />
        </mxCell>
      </root>
    </mxGraphModel>
  </diagram>
</mxfile>
